<svg width="64" height="64" viewBox="0 0 64 64" fill="none" xmlns="http://www.w3.org/2000/svg">
<path d="M60 12H58V46C58 46.7957 57.6839 47.5587 57.1213 48.1213C56.5587 48.6839 55.7957 49 55 49H42.72C40.0813 49.002 37.4793 49.6183 35.12 50.8L33.34 51.68C32.9254 51.8924 32.4658 52.0021 32 52C31.2887 51.9578 30.6002 51.734 30 51.35C29.73 51.2 29.41 51.03 29 50.84H28.9C26.5407 49.6583 23.9387 49.042 21.3 49.04H9C8.20435 49.04 7.44129 48.7239 6.87868 48.1613C6.31607 47.5987 6 46.8357 6 46.04V12H4C3.73478 12 3.48043 12.1054 3.29289 12.2929C3.10536 12.4804 3 12.7348 3 13V53C3 53.2652 3.10536 53.5196 3.29289 53.7071C3.48043 53.8946 3.73478 54 4 54H60C60.2652 54 60.5196 53.8946 60.7071 53.7071C60.8946 53.5196 61 53.2652 61 53V13C61 12.7348 60.8946 12.4804 60.7071 12.2929C60.5196 12.1054 60.2652 12 60 12Z" fill="#B531CA"/>
<path d="M30.67 10.22C27.9723 8.86768 25.0156 8.1106 22 8V31C21.9991 31.1801 21.9495 31.3566 21.8566 31.5108C21.7637 31.6651 21.6308 31.7914 21.4721 31.8764C21.3133 31.9614 21.1346 32.002 20.9547 31.9938C20.7748 31.9856 20.6004 31.929 20.45 31.83L18 30.2L15.55 31.83C15.3996 31.929 15.2252 31.9856 15.0453 31.9938C14.8654 32.002 14.6867 31.9614 14.5279 31.8764C14.3692 31.7914 14.2363 31.6651 14.1434 31.5108C14.0505 31.3566 14.0009 31.1801 14 31V8H9C8.73478 8 8.48043 8.10536 8.29289 8.29289C8.10536 8.48043 8 8.73478 8 9V46C8 46.2652 8.10536 46.5196 8.29289 46.7071C8.48043 46.8946 8.73478 47 9 47H21.28C24.2302 46.9977 27.1404 47.6825 29.78 49C30.3 49.22 30.68 49.43 31 49.6V10.38L30.67 10.22ZM55 8H42.72C39.4606 8.00552 36.2468 8.76535 33.33 10.22L33 10.38V49.62L34.22 49C36.8596 47.6825 39.7698 46.9977 42.72 47H55C55.2652 47 55.5196 46.8946 55.7071 46.7071C55.8946 46.5196 56 46.2652 56 46V9C56 8.73478 55.8946 8.48043 55.7071 8.29289C55.5196 8.10536 55.2652 8 55 8ZM38 26H46.13V28H38V26ZM38 34H46.13V36H38V34ZM50 40H38V38H50V40ZM50 32H38V30H50V32ZM50 24H38V22H50V24Z" fill="#B531CA"/>
</svg>
