<svg width="18" height="18" viewBox="0 0 18 18" fill="none" xmlns="http://www.w3.org/2000/svg">
<path d="M10.9112 9.00409L16.9631 2.96178L16.9633 2.96158C17.2172 2.70764 17.3599 2.36322 17.3599 2.00409C17.3599 1.64496 17.2172 1.30055 16.9633 1.0466C16.7093 0.792663 16.3649 0.65 16.0058 0.65C15.6467 0.65 15.3023 0.792663 15.0483 1.0466L15.0481 1.0468L9.0058 7.09872L2.96348 1.0468L2.96329 1.0466C2.70934 0.792663 2.36493 0.65 2.0058 0.65C1.64667 0.65 1.30225 0.792663 1.04831 1.0466C0.794369 1.30055 0.651707 1.64496 0.651707 2.00409C0.651707 2.36322 0.794369 2.70764 1.04831 2.96158L1.04851 2.96178L7.10043 9.00409L1.04933 15.0456C1.04919 15.0457 1.04906 15.0459 1.04892 15.046C0.922581 15.1714 0.822289 15.3206 0.753825 15.4849C0.685287 15.6494 0.65 15.8259 0.65 16.0041C0.65 16.1823 0.685287 16.3588 0.753825 16.5233C0.822179 16.6873 0.922256 16.8363 1.04831 16.9616C1.1736 17.0876 1.32255 17.1877 1.48662 17.2561C1.65113 17.3246 1.82758 17.3599 2.0058 17.3599C2.18401 17.3599 2.36047 17.3246 2.52498 17.2561C2.68929 17.1876 2.83845 17.0873 2.96385 16.961C2.964 16.9609 2.96415 16.9607 2.9643 16.9606L9.0058 10.9095L15.0473 16.9606C15.0474 16.9607 15.0476 16.9608 15.0477 16.961C15.1731 17.0873 15.3223 17.1876 15.4866 17.2561C15.6511 17.3246 15.8276 17.3599 16.0058 17.3599C16.184 17.3599 16.3605 17.3246 16.525 17.2561C16.689 17.1877 16.838 17.0876 16.9633 16.9616C17.0893 16.8363 17.1894 16.6873 17.2578 16.5233C17.3263 16.3588 17.3616 16.1823 17.3616 16.0041C17.3616 15.8259 17.3263 15.6494 17.2578 15.4849C17.1893 15.3206 17.089 15.1714 16.9627 15.046C16.9625 15.0459 16.9624 15.0457 16.9623 15.0456L10.9112 9.00409Z" fill="black" stroke="black" stroke-width="0.7"/>
</svg>
