<svg width="38" height="38" viewBox="0 0 38 38" fill="none" xmlns="http://www.w3.org/2000/svg">
<path d="M4.48065 26.1071C7.11315 28.7425 10.6188 30.3246 14.3372 30.5553C18.0556 30.786 21.73 29.6493 24.6683 27.3595L34.7782 37.4665C35.1368 37.8127 35.617 38.0043 36.1154 37.9999C36.6139 37.9956 37.0907 37.7957 37.4432 37.4434C37.7957 37.091 37.9956 36.6143 37.9999 36.116C38.0043 35.6177 37.8126 35.1376 37.4663 34.7792L27.3564 24.6722C29.7485 21.6031 30.8795 17.7374 30.5186 13.8634C30.1577 9.98944 28.3322 6.39897 25.4144 3.82427C22.4965 1.24956 18.7061 -0.115433 14.8162 0.0076559C10.9263 0.130745 7.22979 1.73265 4.48065 4.48667C3.06016 5.90602 1.93332 7.59127 1.16451 9.44612C0.395707 11.301 0 13.2891 0 15.2969C0 17.3046 0.395707 19.2928 1.16451 21.1476C1.93332 23.0025 3.06016 24.6877 4.48065 26.1071ZM7.16878 7.17781C9.04814 5.29905 11.521 4.12983 14.166 3.86937C16.8109 3.60891 19.4644 4.27333 21.6744 5.74942C23.8843 7.22551 25.5139 9.42195 26.2855 11.9645C27.0571 14.5071 26.9231 17.2384 25.9062 19.6933C24.8892 22.1481 23.0524 24.1745 20.7085 25.4272C18.3647 26.6799 15.6589 27.0815 13.0521 26.5634C10.4453 26.0453 8.09888 24.6397 6.41253 22.586C4.72618 20.5323 3.80427 17.9577 3.80387 15.3007C3.79865 13.7908 4.09341 12.295 4.67104 10.9C5.24867 9.50492 6.09767 8.23844 7.16878 7.17401V7.17781Z" fill="#B531CA"/>
</svg>
