<svg width="61" height="37" viewBox="0 0 61 37" fill="none" xmlns="http://www.w3.org/2000/svg">
<path d="M56.625 21.6116H11.9262L20.8306 30.4659L20.8307 30.4658L20.8397 30.4752C21.4095 31.0617 21.7255 31.8482 21.7183 32.6655C21.7112 33.4827 21.3815 34.2635 20.8016 34.8401C20.2219 35.4166 19.4386 35.7428 18.6206 35.7499C17.8025 35.757 17.0136 35.4443 16.424 34.878L16.4239 34.8781L16.4147 34.8689L2.16622 20.7007C2.1658 20.7003 2.16538 20.6998 2.16496 20.6994C1.87549 20.4129 1.6455 20.0722 1.48841 19.6967L2.18031 19.4072L1.48841 19.6966C1.33109 19.3205 1.25003 18.9171 1.25 18.5095V18.5C1.25 18.094 1.33135 17.688 1.49398 17.3069C1.65036 16.9303 1.87998 16.5884 2.16942 16.3009C2.16952 16.3008 2.16962 16.3007 2.16972 16.3006L16.4194 2.13111L16.4193 2.13103L16.4287 2.122C17.0184 1.5557 17.8073 1.24305 18.6253 1.25012C19.4433 1.25719 20.2267 1.58342 20.8064 2.15988C21.3863 2.73647 21.7159 3.51734 21.7231 4.33455C21.7302 5.15176 21.4142 5.93826 20.8445 6.52483L20.8446 6.52491L20.8352 6.53423L11.9268 15.3884H56.625C57.4524 15.3884 58.2468 15.7152 58.8332 16.2983L58.3044 16.8301L58.8332 16.2983C59.4197 16.8815 59.75 17.6734 59.75 18.5C59.75 19.3266 59.4197 20.1185 58.8332 20.7017L58.3069 20.1725L58.8332 20.7017C58.2468 21.2848 57.4524 21.6116 56.625 21.6116Z" fill="#B531CA" stroke="#B531CA" stroke-width="1.5"/>
</svg>
